<svg width="48" height="48" viewBox="0 0 48 48" xmlns="http://www.w3.org/2000/svg">
    <g fill="none" fill-rule="evenodd">
        <path stroke="#000" d="M36 26.25h9"/>
        <path d="M30 9v6h9l6 7.632V37.5h-3.968a5.252 5.252 0 0 1-10.064 0h-9.436a5.252 5.252 0 0 1-10.064 0H7.5V30H9v6h2.25a5.25 5.25 0 0 1 10.5 0h6.75V10.5H9V15H7.5V9H30zM16.5 32.25a3.75 3.75 0 1 0 0 7.5 3.75 3.75 0 0 0 0-7.5zm19.5 0a3.75 3.75 0 1 0 0 7.5 3.75 3.75 0 0 0 0-7.5zm2.25-15.75H30V36h.75a5.25 5.25 0 0 1 10.5 0h2.25V23.25l-5.25-6.75z" fill="#111" fill-rule="nonzero"/>
        <path d="M13.5 26.25v1.5h-9v-1.5h9zm-1.5-4.5v1.5H3v-1.5h9zm1.5-4.5v1.5h-9v-1.5h9z" fill="#D99C63"/>
    </g>
</svg>
