<svg width="1128" height="449" viewBox="0 0 1128 449" xmlns="http://www.w3.org/2000/svg" xmlns:xlink="http://www.w3.org/1999/xlink">
    <defs>
        <path id="a" d="M0 0h11v20H0z"/>
        <path id="c" d="M0 0h11v20H0z"/>
        <path id="e" d="M0 0h11v20H0z"/>
        <path id="g" d="M0 0h11v20H0z"/>
    </defs>
    <g fill="none" fill-rule="evenodd">
        <path fill="#E0E0E0" d="M371 0h1v449h-1zM756 0h1v449h-1z"/>
        <path fill="#E0E0E0" d="M0 224h1128v1H0z"/>
        <path fill="#FFF" d="M370 102h1.5v20H370z"/>
        <g transform="translate(371 102)">
            <mask id="b" fill="#fff">
                <use xlink:href="#a"/>
            </mask>
            <path stroke="#E0E0E0" fill="#FFF" mask="url(#b)" d="m0 0 10 10L0 20"/>
        </g>
        <path fill="#FFF" d="M755 102h1.5v20H755z"/>
        <g transform="translate(756 102)">
            <mask id="d" fill="#fff">
                <use xlink:href="#c"/>
            </mask>
            <path stroke="#E0E0E0" fill="#FFF" mask="url(#d)" d="m0 0 10 10L0 20"/>
        </g>
        <g>
            <path fill="#FFF" d="M370 327h1.5v20H370z"/>
            <g transform="translate(371 327)">
                <mask id="f" fill="#fff">
                    <use xlink:href="#e"/>
                </mask>
                <path stroke="#E0E0E0" fill="#FFF" mask="url(#f)" d="m0 0 10 10L0 20"/>
            </g>
        </g>
        <g>
            <path fill="#FFF" d="M755 327h1.5v20H755z"/>
            <g transform="translate(756 327)">
                <mask id="h" fill="#fff">
                    <use xlink:href="#g"/>
                </mask>
                <path stroke="#E0E0E0" fill="#FFF" mask="url(#h)" d="m0 0 10 10L0 20"/>
            </g>
        </g>
    </g>
</svg>
