<svg width="48" height="48" viewBox="0 0 48 48" xmlns="http://www.w3.org/2000/svg">
    <g fill="none" fill-rule="evenodd">
        <path d="M43.5 24c0 10.77-8.73 19.5-19.5 19.5-10.769 0-19.5-8.73-19.5-19.5S13.231 4.5 24 4.5c10.77 0 19.5 8.73 19.5 19.5z" stroke="#000"/>
        <path d="M40.714 24c0 9.23-7.483 16.714-16.714 16.714-9.23 0-16.714-7.483-16.714-16.714 0-9.23 7.483-16.714 16.714-16.714 9.23 0 16.714 7.483 16.714 16.714z" stroke="#000" stroke-dasharray="1,2"/>
        <path d="M22.278 17.716v6.286h2.82c2.137 0 3.366-1.153 3.366-3.138v-.021c0-1.975-1.229-3.127-3.367-3.127h-2.819zm-2.457-2.073h5.89c3.104 0 5.253 2.085 5.253 5.189v.02c0 3.094-2.15 5.21-5.253 5.21h-3.433v5.409h-2.457V15.643z" fill="#020203"/>
    </g>
</svg>
